<?xml version="1.0" encoding="UTF-8" standalone="no"?>
<!-- Created with Inkscape (http://www.inkscape.org/) -->

<svg
   xmlns:dc="http://purl.org/dc/elements/1.1/"
   xmlns:cc="http://creativecommons.org/ns#"
   xmlns:rdf="http://www.w3.org/1999/02/22-rdf-syntax-ns#"
   xmlns:svg="http://www.w3.org/2000/svg"
   xmlns="http://www.w3.org/2000/svg"
   xmlns:xlink="http://www.w3.org/1999/xlink"
   xmlns:sodipodi="http://sodipodi.sourceforge.net/DTD/sodipodi-0.dtd"
   xmlns:inkscape="http://www.inkscape.org/namespaces/inkscape"
   width="135"
   height="30"
   viewBox="0 0 135 30"
   id="svg2"
   version="1.1"
   inkscape:version="0.91 r13725"
   sodipodi:docname="site-logo.svg">
  <defs
     id="defs4">
    <linearGradient
       id="linearGradient4308"
       inkscape:collect="always">
      <stop
         id="stop4310"
         offset="0"
         style="stop-color:#c46a00;stop-opacity:1" />
      <stop
         id="stop4312"
         offset="1"
         style="stop-color:#cc0000;stop-opacity:1" />
    </linearGradient>
    <linearGradient
       id="linearGradient4302"
       inkscape:collect="always">
      <stop
         id="stop4304"
         offset="0"
         style="stop-color:#1abc9c;stop-opacity:1" />
      <stop
         id="stop4306"
         offset="1"
         style="stop-color:#c46a00;stop-opacity:1" />
    </linearGradient>
    <linearGradient
       id="linearGradient4296"
       inkscape:collect="always">
      <stop
         id="stop4298"
         offset="0"
         style="stop-color:#3498db;stop-opacity:1" />
      <stop
         id="stop4300"
         offset="1"
         style="stop-color:#16a085;stop-opacity:1" />
    </linearGradient>
    <linearGradient
       id="linearGradient4290"
       inkscape:collect="always">
      <stop
         id="stop4292"
         offset="0"
         style="stop-color:#f08000;stop-opacity:1" />
      <stop
         id="stop4294"
         offset="1"
         style="stop-color:#3498db;stop-opacity:1" />
    </linearGradient>
    <linearGradient
       id="linearGradient4284"
       inkscape:collect="always">
      <stop
         id="stop4286"
         offset="0"
         style="stop-color:#a40000;stop-opacity:1" />
      <stop
         id="stop4288"
         offset="1"
         style="stop-color:#f08000;stop-opacity:1" />
    </linearGradient>
    <linearGradient
       id="linearGradient4278"
       inkscape:collect="always">
      <stop
         id="stop4280"
         offset="0"
         style="stop-color:#e74c3c;stop-opacity:1" />
      <stop
         id="stop4282"
         offset="1"
         style="stop-color:#a40000;stop-opacity:1" />
    </linearGradient>
    <linearGradient
       id="linearGradient4272"
       inkscape:collect="always">
      <stop
         id="stop4274"
         offset="0"
         style="stop-color:#16a085;stop-opacity:1" />
      <stop
         id="stop4276"
         offset="1"
         style="stop-color:#ff9900;stop-opacity:1" />
    </linearGradient>
    <linearGradient
       id="linearGradient4266"
       inkscape:collect="always">
      <stop
         id="stop4268"
         offset="0"
         style="stop-color:#1abc9c;stop-opacity:1" />
      <stop
         id="stop4270"
         offset="1"
         style="stop-color:#1abc9c;stop-opacity:1" />
    </linearGradient>
    <linearGradient
       id="linearGradient4260"
       inkscape:collect="always">
      <stop
         id="stop4262"
         offset="0"
         style="stop-color:#ff9900;stop-opacity:1" />
      <stop
         id="stop4264"
         offset="1"
         style="stop-color:#1abc9c;stop-opacity:1" />
    </linearGradient>
    <linearGradient
       inkscape:collect="always"
       id="linearGradient4234">
      <stop
         style="stop-color:#cc0000;stop-opacity:1"
         offset="0"
         id="stop4236" />
      <stop
         style="stop-color:#f08000;stop-opacity:1"
         offset="1"
         id="stop4238" />
    </linearGradient>
    <linearGradient
       inkscape:collect="always"
       xlink:href="#linearGradient4308"
       id="linearGradient4240"
       x1="105.36951"
       y1="1024.9971"
       x2="119.20035"
       y2="1045.5236"
       gradientUnits="userSpaceOnUse" />
    <linearGradient
       inkscape:collect="always"
       xlink:href="#linearGradient4234"
       id="linearGradient4242"
       x1="119.20035"
       y1="1045.5236"
       x2="133.76056"
       y2="1025.9696"
       gradientUnits="userSpaceOnUse" />
    <linearGradient
       inkscape:collect="always"
       xlink:href="#linearGradient4302"
       id="linearGradient4244"
       x1="111.07167"
       y1="1051.4069"
       x2="105.36951"
       y2="1024.9971"
       gradientUnits="userSpaceOnUse" />
    <linearGradient
       inkscape:collect="always"
       xlink:href="#linearGradient4266"
       id="linearGradient4246"
       x1="70.572128"
       y1="1025.3868"
       x2="111.07167"
       y2="1051.4069"
       gradientUnits="userSpaceOnUse" />
    <linearGradient
       inkscape:collect="always"
       xlink:href="#linearGradient4260"
       id="linearGradient4248"
       x1="67.866707"
       y1="1045.5236"
       x2="70.572128"
       y2="1025.3868"
       gradientUnits="userSpaceOnUse" />
    <linearGradient
       inkscape:collect="always"
       xlink:href="#linearGradient4272"
       id="linearGradient4250"
       x1="61.762611"
       y1="1024.2653"
       x2="68.100815"
       y2="1045.5236"
       gradientUnits="userSpaceOnUse"
       gradientTransform="translate(-0.23411065,0)" />
    <linearGradient
       inkscape:collect="always"
       xlink:href="#linearGradient4296"
       id="linearGradient4252"
       x1="38.279133"
       y1="1045.8875"
       x2="61.762611"
       y2="1024.2653"
       gradientUnits="userSpaceOnUse"
       gradientTransform="translate(-0.23411065,0)" />
    <linearGradient
       inkscape:collect="always"
       xlink:href="#linearGradient4290"
       id="linearGradient4254"
       x1="30.448053"
       y1="1021.9977"
       x2="38.279133"
       y2="1045.8875"
       gradientUnits="userSpaceOnUse"
       gradientTransform="translate(-0.23411065,0)" />
    <linearGradient
       inkscape:collect="always"
       xlink:href="#linearGradient4284"
       id="linearGradient4256"
       x1="24.483751"
       y1="1050.9408"
       x2="30.448053"
       y2="1021.9977"
       gradientUnits="userSpaceOnUse"
       gradientTransform="translate(-0.23411065,0)" />
    <linearGradient
       inkscape:collect="always"
       xlink:href="#linearGradient4278"
       id="linearGradient4258"
       x1="0.98019177"
       y1="1035.6372"
       x2="24.24964"
       y2="1050.9408"
       gradientUnits="userSpaceOnUse" />
  </defs>
  <sodipodi:namedview
     id="base"
     pagecolor="#ffffff"
     bordercolor="#666666"
     borderopacity="1.0"
     inkscape:pageopacity="0.0"
     inkscape:pageshadow="2"
     inkscape:zoom="0.35"
     inkscape:cx="375"
     inkscape:cy="520"
     inkscape:document-units="px"
     inkscape:current-layer="layer1"
     showgrid="false"
     showguides="false"
     inkscape:guide-bbox="true"
     units="px"
     inkscape:snap-page="false"
     inkscape:snap-bbox="true"
     inkscape:bbox-paths="true"
     inkscape:snap-center="false"
     inkscape:showpageshadow="false"
     inkscape:object-nodes="true"
     inkscape:snap-global="true"
     showborder="true"
     inkscape:snap-intersection-paths="true"
     inkscape:snap-smooth-nodes="true"
     inkscape:object-paths="true">
    <sodipodi:guide
       position="1,0"
       orientation="1,0"
       id="guide4140"
       inkscape:label=""
       inkscape:color="rgb(0,0,255)" />
    <sodipodi:guide
       position="93.000001,114.963"
       orientation="1,0"
       id="guide4142"
       inkscape:label=""
       inkscape:color="rgb(0,0,255)" />
    <sodipodi:guide
       position="35.292181,1"
       orientation="0,1"
       id="guide4144"
       inkscape:label=""
       inkscape:color="rgb(0,0,255)" />
    <sodipodi:guide
       position="-2.6337449,29"
       orientation="0,1"
       id="guide4146"
       inkscape:label=""
       inkscape:color="rgb(0,0,255)" />
    <sodipodi:guide
       position="33.25103,15"
       orientation="0,1"
       id="guide4150"
       inkscape:label=""
       inkscape:color="rgb(0,0,255)" />
    <sodipodi:guide
       position="134,36.740741"
       orientation="1,0"
       id="guide4154"
       inkscape:label=""
       inkscape:color="rgb(0,0,255)" />
    <sodipodi:guide
       position="86.57671,21.8805"
       orientation="1,0"
       id="guide4187" />
    <sodipodi:guide
       position="90.792069,25.8836"
       orientation="0,1"
       id="guide4218" />
    <sodipodi:guide
       position="115.13509,28.097"
       orientation="1,0"
       id="guide4220" />
    <sodipodi:guide
       position="109.58897,21.8805"
       orientation="0,1"
       id="guide4222" />
    <inkscape:grid
       type="xygrid"
       id="grid4232" />
  </sodipodi:namedview>
  <metadata
     id="metadata7">
    <rdf:RDF>
      <cc:Work
         rdf:about="">
        <dc:format>image/svg+xml</dc:format>
        <dc:type
           rdf:resource="http://purl.org/dc/dcmitype/StillImage" />
        <dc:title></dc:title>
      </cc:Work>
    </rdf:RDF>
  </metadata>
  <g
     inkscape:label="Camada 1"
     inkscape:groupmode="layer"
     id="layer1"
     transform="translate(0,-1022.3622)">
    <path
       inkscape:connector-curvature="0"
       id="path4157"
       style="font-style:normal;font-variant:normal;font-weight:bold;font-stretch:normal;font-size:medium;line-height:125%;font-family:'Source Sans Pro';-inkscape-font-specification:'Source Sans Pro Bold';letter-spacing:0px;word-spacing:0px;fill:url(#linearGradient4258);fill-opacity:1;stroke:none;stroke-width:1px;stroke-linecap:butt;stroke-linejoin:miter;stroke-opacity:1"
       d="m 0.98019176,1045.5236 7.33896964,0 c 4.2760116,0 7.6725586,-1.7893 7.6725586,-5.8227 0,-2.6384 -1.455663,-4.1244 -4.276011,-4.6399 l 0,-0.1213 c 2.304801,-0.6066 3.305569,-2.5171 3.305569,-4.276 0,-3.7908 -3.184263,-4.9129 -7.2783167,-4.9129 l -6.76276954,0 0,19.7728 z m 4.45796914,-11.797 0,-4.5186 2.1228424,0 c 2.0925162,0 3.0932847,0.6065 3.0932847,2.0925 0,1.486 -0.9401159,2.4261 -3.123611,2.4261 l -2.0925161,0 z m 0,8.3398 0,-5.1858 2.5170846,0 c 2.4564315,0 3.6694845,0.7581 3.6694845,2.4867 0,1.7893 -1.243379,2.6991 -3.6694845,2.6991 l -2.5170846,0 z" />
    <path
       inkscape:connector-curvature="0"
       id="path4159"
       style="font-style:normal;font-variant:normal;font-weight:bold;font-stretch:normal;font-size:medium;line-height:125%;font-family:'Source Sans Pro';-inkscape-font-specification:'Source Sans Pro Bold';letter-spacing:0px;word-spacing:0px;fill:url(#linearGradient4256);fill-opacity:1;stroke:none;stroke-width:1px;stroke-linecap:butt;stroke-linejoin:miter;stroke-opacity:1"
       d="m 17.720147,1041.3385 c 0,2.5474 1.7286,4.549 4.457969,4.549 1.698274,0 3.123611,-0.7885 4.397317,-1.9106 l 0.09098,0 0.333589,1.5467 3.639159,0 0,-8.6127 c 0,-4.6096 -2.122843,-6.7931 -5.974285,-6.7931 -2.365453,0 -4.518622,0.8188 -6.42918,1.9712 l 1.576968,2.9417 c 1.455664,-0.8492 2.729369,-1.3647 4.003075,-1.3647 1.607295,0 2.274474,0.8491 2.365453,2.1835 -5.943959,0.6065 -8.461044,2.3351 -8.461044,5.489 z m 4.245685,-0.3336 c 0,-1.1524 1.031095,-2.0622 4.215359,-2.4867 l 0,2.6384 c -0.788485,0.7885 -1.455664,1.2737 -2.486759,1.2737 -1.061421,0 -1.7286,-0.4549 -1.7286,-1.4254 z" />
    <path
       inkscape:connector-curvature="0"
       id="path4161"
       style="font-style:normal;font-variant:normal;font-weight:bold;font-stretch:normal;font-size:medium;line-height:125%;font-family:'Source Sans Pro';-inkscape-font-specification:'Source Sans Pro Bold';letter-spacing:0px;word-spacing:0px;fill:url(#linearGradient4254);fill-opacity:1;stroke:none;stroke-width:1px;stroke-linecap:butt;stroke-linejoin:miter;stroke-opacity:1"
       d="m 32.283023,1043.795 c 1.516316,1.2433 3.79079,2.0925 5.762,2.0925 4.033401,0 6.18657,-2.1229 6.18657,-4.8522 0,-2.7597 -2.153169,-3.8212 -4.063727,-4.5187 -1.546642,-0.5762 -2.941653,-0.9401 -2.941653,-1.9105 0,-0.7582 0.545874,-1.1827 1.698274,-1.1827 1.061421,0 2.092516,0.4852 3.184263,1.2737 l 2.001538,-2.6688 c -1.304032,-0.9704 -3.002306,-1.9105 -5.307107,-1.9105 -3.487526,0 -5.762,1.9105 -5.762,4.7006 0,2.4867 2.153168,3.7301 3.972748,4.4276 1.546642,0.6065 3.062958,1.0614 3.062958,2.0622 0,0.7885 -0.5762,1.2737 -1.910558,1.2737 -1.273706,0 -2.517085,-0.5459 -3.881769,-1.577 l -2.001537,2.7901 z" />
    <path
       inkscape:connector-curvature="0"
       id="path4163"
       style="font-style:normal;font-variant:normal;font-weight:bold;font-stretch:normal;font-size:medium;line-height:125%;font-family:'Source Sans Pro';-inkscape-font-specification:'Source Sans Pro Bold';letter-spacing:0px;word-spacing:0px;fill:url(#linearGradient4252);fill-opacity:1;stroke:none;stroke-width:1px;stroke-linecap:butt;stroke-linejoin:miter;stroke-opacity:1"
       d="m 45.937225,1041.3385 c 0,2.5474 1.7286,4.549 4.457969,4.549 1.698274,0 3.123611,-0.7885 4.397316,-1.9106 l 0.09098,0 0.33359,1.5467 3.639158,0 0,-8.6127 c 0,-4.6096 -2.122842,-6.7931 -5.974285,-6.7931 -2.365453,0 -4.518622,0.8188 -6.42918,1.9712 l 1.576969,2.9417 c 1.455663,-0.8492 2.729369,-1.3647 4.003074,-1.3647 1.607295,0 2.274474,0.8491 2.365453,2.1835 -5.943959,0.6065 -8.461043,2.3351 -8.461043,5.489 z m 4.245685,-0.3336 c 0,-1.1524 1.031094,-2.0622 4.215358,-2.4867 l 0,2.6384 c -0.788484,0.7885 -1.455663,1.2737 -2.486758,1.2737 -1.061421,0 -1.7286,-0.4549 -1.7286,-1.4254 z" />
    <path
       inkscape:connector-curvature="0"
       id="path4165"
       style="font-style:normal;font-variant:normal;font-weight:bold;font-stretch:normal;font-size:medium;line-height:125%;font-family:'Source Sans Pro';-inkscape-font-specification:'Source Sans Pro Bold';letter-spacing:0px;word-spacing:0px;fill:url(#linearGradient4250);fill-opacity:1;stroke:none;stroke-width:1px;stroke-linecap:butt;stroke-linejoin:miter;stroke-opacity:1"
       d="m 61.528501,1040.8533 c 0,3.0326 1.031095,5.0342 4.094053,5.0342 1.000769,0 1.758927,-0.1517 2.244148,-0.3639 l -0.545874,-3.3056 c -0.242611,0.061 -0.363916,0.061 -0.545874,0.061 -0.363916,0 -0.788484,-0.3032 -0.788484,-1.2433 l 0,-16.7705 -4.457969,0 0,16.5885 z" />
    <path
       inkscape:connector-curvature="0"
       id="path4167"
       style="font-style:normal;font-variant:normal;font-weight:bold;font-stretch:normal;font-size:medium;line-height:125%;font-family:'Source Sans Pro';-inkscape-font-specification:'Source Sans Pro Bold';letter-spacing:0px;word-spacing:0px;fill:url(#linearGradient4248);fill-opacity:1;stroke:none;stroke-width:1px;stroke-linecap:butt;stroke-linejoin:miter;stroke-opacity:1"
       d="m 70.45164,1043.0368 c 2.001537,1.8802 4.730906,2.8507 7.308643,2.8507 4.730906,0 7.460275,-2.8507 7.460275,-6.1259 0,-2.7901 -1.516316,-4.3974 -3.912095,-5.3678 l -2.547411,-1.0311 c -1.698274,-0.6975 -3.002306,-1.1221 -3.002306,-2.3351 0,-1.1221 0.970442,-1.7893 2.517084,-1.7893 1.576969,0 2.790022,0.5762 4.094054,1.577 l 2.274474,-2.8204 c -1.698274,-1.6982 -4.094053,-2.608 -6.368528,-2.608 -4.124379,0 -7.035706,2.608 -7.035706,5.8833 0,2.881 1.940885,4.5793 3.972748,5.3981 l 2.577737,1.0917 c 1.728601,0.7279 2.850674,1.1221 2.850674,2.3655 0,1.1827 -0.909789,1.9105 -2.759695,1.9105 -1.637621,0 -3.4572,-0.8491 -4.882537,-2.0622 l -2.547411,3.063 z" />
    <path
       inkscape:connector-curvature="0"
       id="path4169"
       style="font-style:normal;font-variant:normal;font-weight:bold;font-stretch:normal;font-size:medium;line-height:125%;font-family:'Source Sans Pro';-inkscape-font-specification:'Source Sans Pro Bold';letter-spacing:0px;word-spacing:0px;fill:url(#linearGradient4246);fill-opacity:1;stroke:none;stroke-width:1px;stroke-linecap:butt;stroke-linejoin:miter;stroke-opacity:1"
       d="m 87.816801,1040.0648 c 0,3.4875 1.455663,5.8227 5.185801,5.8227 1.455663,0 2.547411,-0.3033 3.335895,-0.5459 l -0.697505,-3.2449 c -0.394243,0.1516 -0.940116,0.3032 -1.425337,0.3032 -1.182727,0 -1.940885,-0.6975 -1.940885,-2.3957 l 0,-6.035 6.223068,0 0,-3.4875 -6.223068,0 0,-4.0031 -4.215359,0 0,4.0031 -2.3048,0.182 0,3.3055 2.06219,0 z"
       sodipodi:nodetypes="ssccssccccccccccs" />
    <path
       inkscape:connector-curvature="0"
       id="path4171"
       style="font-style:normal;font-variant:normal;font-weight:bold;font-stretch:normal;font-size:medium;line-height:125%;font-family:'Source Sans Pro';-inkscape-font-specification:'Source Sans Pro Bold';letter-spacing:0px;word-spacing:0px;fill:url(#linearGradient4244);fill-opacity:1;stroke:none;stroke-width:1px;stroke-linecap:butt;stroke-linejoin:miter;stroke-opacity:1"
       d="m 97.940367,1047.7071 -0.788485,3.3965 c 0.606527,0.182 1.213053,0.3033 2.122843,0.3033 3.548175,0 5.155485,-1.9409 6.580815,-5.7317 l 5.21613,-15.1935 -4.27601,0 -1.81958,6.4595 c -0.36392,1.4253 -0.69751,2.8507 -1.03109,4.276 l -0.12131,0 c -0.39424,-1.486 -0.75816,-2.9113 -1.18274,-4.276 l -2.15316,-6.4595 -4.488298,0 5.792328,14.6476 -0.21229,0.7885 c -0.39424,1.1827 -1.1524,1.9712 -2.638385,1.9712 -0.333589,0 -0.727831,-0.1213 -1.000768,-0.1819 z" />
    <path
       inkscape:connector-curvature="0"
       id="path4175"
       style="font-style:normal;font-variant:normal;font-weight:bold;font-stretch:normal;font-size:medium;line-height:125%;font-family:'Source Sans Pro';-inkscape-font-specification:'Source Sans Pro Bold';letter-spacing:0px;word-spacing:0px;fill:url(#linearGradient4242);fill-opacity:1;stroke:none;stroke-width:1px;stroke-linecap:butt;stroke-linejoin:miter;stroke-opacity:1"
       d="m 120.6604,1038.0026 c 0,4.9735 3.30557,7.8849 7.61191,7.8849 1.78925,0 3.79079,-0.6369 5.33743,-1.6983 l -1.48599,-2.699 c -1.09174,0.6671 -2.12284,1.0007 -3.24491,1.0007 -2.00154,0 -3.51786,-1.0007 -3.9121,-3.2752 l 9.00692,0 c 0.091,-0.3639 0.18196,-1.0918 0.18196,-1.8802 0,-4.0941 -2.12285,-7.2177 -6.39886,-7.2177 -3.60883,0 -7.09636,3.0023 -7.09636,7.8848 z m 4.27602,-1.5466 c 0.30326,-2.0015 1.51631,-2.9417 2.91132,-2.9417 1.78926,0 2.51709,1.2131 2.51709,2.9417 l -5.42841,0 z" />
    <path
       d="m 112.86215,1040.8533 c 0,3.0326 1.03109,5.0342 4.09405,5.0342 1.00077,0 1.75893,-0.1517 2.24415,-0.3639 l -0.54587,-3.3056 c -0.24261,0.061 -0.36392,0.061 -0.54588,0.061 -0.36391,0 -0.78848,-0.3032 -0.78848,-1.2433 l 0,-14.5571 -4.45797,0 0,14.3751 z"
       style="font-style:normal;font-variant:normal;font-weight:bold;font-stretch:normal;font-size:medium;line-height:125%;font-family:'Source Sans Pro';-inkscape-font-specification:'Source Sans Pro Bold';letter-spacing:0px;word-spacing:0px;fill:url(#linearGradient4240);fill-opacity:1;stroke:none;stroke-width:1px;stroke-linecap:butt;stroke-linejoin:miter;stroke-opacity:1"
       id="path4230"
       inkscape:connector-curvature="0"
       sodipodi:nodetypes="csccsscccc" />
  </g>
</svg>
